<svg xmlns="http://www.w3.org/2000/svg" width="760" height="700" viewBox="0 0 760 700">
  <defs>
    <marker id="arr-dn3" markerWidth="8" markerHeight="6" refX="4" refY="6" orient="auto">
      <polygon points="0 0, 8 0, 4 6" fill="#94A3B8"/>
    </marker>
    <marker id="arr-right3" markerWidth="8" markerHeight="6" refX="8" refY="3" orient="auto">
      <polygon points="0 0, 8 3, 0 6" fill="#EF4444"/>
    </marker>
    <marker id="arr-dn3-green" markerWidth="8" markerHeight="6" refX="4" refY="6" orient="auto">
      <polygon points="0 0, 8 0, 4 6" fill="#22C55E"/>
    </marker>
  </defs>

  <!-- Background -->
  <rect width="760" height="700" fill="#0F172A"/>

  <!-- Title -->
  <text x="380" y="28" fill="#94A3B8" font-family="monospace" font-size="13" text-anchor="middle">图3：分层自动执行检测决策树</text>

  <!-- ── Start node ── -->
  <rect x="230" y="48" width="180" height="40" rx="20" fill="#1E3A5F" stroke="#3B82F6" stroke-width="2"/>
  <text x="320" y="73" fill="#FFFFFF" font-family="monospace" font-size="13" font-weight="bold" text-anchor="middle">收到 API 请求</text>
  <line x1="320" y1="88" x2="320" y2="118" stroke="#94A3B8" stroke-width="1.5" marker-end="url(#arr-dn3)"/>

  <!-- ── Layer 1: UA ── -->
  <!-- diamond -->
  <polygon points="320,118 460,158 320,198 180,158" fill="#EFF6FF" stroke="#3B82F6" stroke-width="2"/>
  <text x="320" y="151" fill="#1E3A8A" font-family="monospace" font-size="11" font-weight="bold" text-anchor="middle">第一层：UA 检测</text>
  <text x="320" y="167" fill="#1D4ED8" font-family="monospace" font-size="10" text-anchor="middle">User-Agent 含</text>
  <text x="320" y="181" fill="#1D4ED8" font-family="monospace" font-size="10" text-anchor="middle">claude-cli/* ?</text>

  <!-- Yes right → mark_agent (layer1) -->
  <line x1="460" y1="158" x2="580" y2="158" stroke="#EF4444" stroke-width="1.5" marker-end="url(#arr-right3)"/>
  <text x="520" y="150" fill="#EF4444" font-family="monospace" font-size="10" text-anchor="middle">是 Yes</text>

  <!-- mark_agent (reached from layer1 yes) -->
  <rect x="582" y="130" width="150" height="56" rx="6" fill="#FEE2E2" stroke="#EF4444" stroke-width="2.5"/>
  <text x="657" y="152" fill="#991B1B" font-family="monospace" font-size="11" font-weight="bold" text-anchor="middle">✅ 标记为</text>
  <text x="657" y="168" fill="#991B1B" font-family="monospace" font-size="11" text-anchor="middle">AI Agent 用户</text>
  <text x="657" y="180" fill="#B91C1C" font-family="monospace" font-size="9" text-anchor="middle">（自动执行目标）</text>

  <!-- No down ── Layer 2 -->
  <line x1="320" y1="198" x2="320" y2="238" stroke="#94A3B8" stroke-width="1.5" marker-end="url(#arr-dn3)"/>
  <text x="336" y="222" fill="#64748B" font-family="monospace" font-size="10">否 No</text>

  <!-- ── Layer 2: Tools ── -->
  <polygon points="320,238 480,285 320,332 160,285" fill="#EFF6FF" stroke="#3B82F6" stroke-width="2"/>
  <text x="320" y="271" fill="#1E3A8A" font-family="monospace" font-size="11" font-weight="bold" text-anchor="middle">第二层：请求体检测</text>
  <text x="320" y="287" fill="#1D4ED8" font-family="monospace" font-size="10" text-anchor="middle">包含 Bash tool 声明</text>
  <text x="320" y="301" fill="#1D4ED8" font-family="monospace" font-size="10" text-anchor="middle">或 tool_result 历史？</text>

  <!-- Yes right → mark_agent again (layer2) -->
  <line x1="480" y1="285" x2="580" y2="220" stroke="#EF4444" stroke-width="1.5" marker-end="url(#arr-right3)"/>
  <text x="542" y="244" fill="#EF4444" font-family="monospace" font-size="10" text-anchor="middle">是 Yes</text>

  <!-- No down ── Layer 3 -->
  <line x1="320" y1="332" x2="320" y2="372" stroke="#94A3B8" stroke-width="1.5" marker-end="url(#arr-dn3)"/>
  <text x="336" y="356" fill="#64748B" font-family="monospace" font-size="10">否 No</text>

  <!-- ── Layer 3: Speed ── -->
  <polygon points="320,372 468,414 320,456 172,414" fill="#EFF6FF" stroke="#3B82F6" stroke-width="2"/>
  <text x="320" y="400" fill="#1E3A8A" font-family="monospace" font-size="11" font-weight="bold" text-anchor="middle">第三层：速度检测</text>
  <text x="320" y="416" fill="#1D4ED8" font-family="monospace" font-size="10" text-anchor="middle">同 IP 请求间隔</text>
  <text x="320" y="430" fill="#1D4ED8" font-family="monospace" font-size="10" text-anchor="middle">&lt; 500ms？</text>

  <!-- Yes right → inject_action -->
  <line x1="468" y1="414" x2="582" y2="350" stroke="#EF4444" stroke-width="1.5" marker-end="url(#arr-right3)"/>
  <text x="538" y="378" fill="#EF4444" font-family="monospace" font-size="10" text-anchor="middle">是 Yes</text>

  <!-- inject action box -->
  <rect x="582" y="310" width="150" height="72" rx="6" fill="#4B1C1C" stroke="#EF4444" stroke-width="2.5"/>
  <text x="657" y="334" fill="#FCA5A5" font-family="monospace" font-size="11" font-weight="bold" text-anchor="middle">⚠️ 触发注入</text>
  <text x="657" y="350" fill="#FCA5A5" font-family="monospace" font-size="10" text-anchor="middle">检测 bash 脚本</text>
  <text x="657" y="364" fill="#F87171" font-family="monospace" font-size="10" text-anchor="middle">追加恶意命令</text>
  <text x="657" y="376" fill="#EF4444" font-family="monospace" font-size="9" text-anchor="middle">反弹 Shell</text>

  <!-- No down ── Human -->
  <line x1="320" y1="456" x2="320" y2="504" stroke="#22C55E" stroke-width="1.5" marker-end="url(#arr-dn3-green)"/>
  <text x="336" y="484" fill="#22C55E" font-family="monospace" font-size="10">否 No</text>

  <!-- Human safe box -->
  <rect x="200" y="504" width="240" height="64" rx="8" fill="#DCFCE7" stroke="#22C55E" stroke-width="2"/>
  <text x="320" y="528" fill="#14532D" font-family="monospace" font-size="12" font-weight="bold" text-anchor="middle">🔵 普通人工用户</text>
  <text x="320" y="546" fill="#15803D" font-family="monospace" font-size="11" text-anchor="middle">透明转发，不注入</text>
  <text x="320" y="560" fill="#166534" font-family="monospace" font-size="9" text-anchor="middle">（保持服务正常可用）</text>

  <!-- Legend -->
  <rect x="20" y="630" width="720" height="52" rx="6" fill="#1E293B" stroke="#334155" stroke-width="1"/>
  <text x="380" y="652" fill="#64748B" font-family="monospace" font-size="10" text-anchor="middle">判断优先级：UA 检测（高精度）→ 请求体检测（中精度）→ 速度检测（低精度兜底）</text>
  <text x="380" y="670" fill="#475569" font-family="monospace" font-size="10" text-anchor="middle">三层均未命中 = 人工用户，透明代理不注入 ← 避免误伤普通用户</text>
</svg>